HIERARCHY
ROOT Bip001_Pelvis
{
  OFFSET 3.67809 93.2994 -2.41599
  CHANNELS 6 Xposition Yposition Zposition Zrotation Xrotation Yrotation
  JOINT Bip001_Spine
  {
    OFFSET 1.44608e-005 10.4157 -0.0118244
    CHANNELS 3 Zrotation Xrotation Yrotation
    JOINT Bip001_L_Thigh
    {
      OFFSET 11.2582 -10.4157 0.0118432
      CHANNELS 3 Zrotation Xrotation Yrotation
      JOINT Bip001_L_Calf
      {
        OFFSET -0.720717 -44.8687 0.366937
        CHANNELS 3 Zrotation Xrotation Yrotation
        JOINT Bip001_L_Foot
        {
          OFFSET -0.664439 -41.3745 -3.62995
          CHANNELS 3 Zrotation Xrotation Yrotation
          JOINT Bip001_L_Toe0
          {
            OFFSET 0.0541048 -10.4146 13.4033
            CHANNELS 3 Zrotation Xrotation Yrotation
            End Site
            {
              OFFSET -1.04503e-005 0 7.70137
            }
          }
        }
      }
    }
    JOINT Bip001_R_Thigh
    {
      OFFSET -11.2582 -10.4156 0.0118122
      CHANNELS 3 Zrotation Xrotation Yrotation
      JOINT Bip001_R_Calf
      {
        OFFSET 0.72059 -44.8687 0.36676
        CHANNELS 3 Zrotation Xrotation Yrotation
        JOINT Bip001_R_Foot
        {
          OFFSET 0.664321 -41.3745 -3.62979
          CHANNELS 3 Zrotation Xrotation Yrotation
          JOINT Bip001_R_Toe0
          {
            OFFSET -0.05417 -10.4146 13.4033
            CHANNELS 3 Zrotation Xrotation Yrotation
            End Site
            {
              OFFSET -1.04873e-005 0 7.70137
            }
          }
        }
      }
    }
    JOINT Bip001_Spine1
    {
      OFFSET 1.90638e-005 14.8539 1.10727
      CHANNELS 3 Zrotation Xrotation Yrotation
      JOINT Bip001_Spine2
      {
        OFFSET 2.28934e-005 14.7848 -1.7233
        CHANNELS 3 Zrotation Xrotation Yrotation
        JOINT Bip001_Neck
        {
          OFFSET 2.24514e-005 15.6905 -0.498826
          CHANNELS 3 Zrotation Xrotation Yrotation
          JOINT Bip001_L_Clavicle
          {
            OFFSET 6.17691 -0.000591152 0.00852867
            CHANNELS 3 Zrotation Xrotation Yrotation
            JOINT Bip001_L_UpperArm
            {
              OFFSET 11.773 -0.0611878 0.00197697
              CHANNELS 3 Zrotation Xrotation Yrotation
              JOINT Bip001_L_Forearm
              {
                OFFSET 26.4515 0.0817568 -2.19579
                CHANNELS 3 Zrotation Xrotation Yrotation
                JOINT Bip001_L_Hand
                {
                  OFFSET 32.8678 0.156744 1.67112
                  CHANNELS 3 Zrotation Xrotation Yrotation
                  JOINT Bip001_L_Finger0
                  {
                    OFFSET 6.16268 -2.25226 6.01673
                    CHANNELS 3 Zrotation Xrotation Yrotation
                    End Site
                    {
                      OFFSET 4.30499 -1.46663 0.618147
                    }
                  }
                  JOINT Bip001_L_Finger1
                  {
                    OFFSET 11.2958 -0.718375 -0.201963
                    CHANNELS 3 Zrotation Xrotation Yrotation
                    End Site
                    {
                      OFFSET 6.31953 -0.405163 -0.0802301
                    }
                  }
                }
              }
            }
          }
          JOINT Bip001_R_Clavicle
          {
            OFFSET -6.17691 -0.000574027 0.00851165
            CHANNELS 3 Zrotation Xrotation Yrotation
            JOINT Bip001_R_UpperArm
            {
              OFFSET -11.773 -0.0611516 0.00194365
              CHANNELS 3 Zrotation Xrotation Yrotation
              JOINT Bip001_R_Forearm
              {
                OFFSET -26.4514 0.0822335 -2.19736
                CHANNELS 3 Zrotation Xrotation Yrotation
                JOINT Bip001_R_Hand
                {
                  OFFSET -32.8679 0.156816 1.67143
                  CHANNELS 3 Zrotation Xrotation Yrotation
                  JOINT Bip001_R_Finger0
                  {
                    OFFSET -6.16275 -2.25224 6.01668
                    CHANNELS 3 Zrotation Xrotation Yrotation
                    End Site
                    {
                      OFFSET -4.30502 -1.46661 0.618132
                    }
                  }
                  JOINT Bip001_R_Finger1
                  {
                    OFFSET -11.2958 -0.718342 -0.201993
                    CHANNELS 3 Zrotation Xrotation Yrotation
                    End Site
                    {
                      OFFSET -6.31957 -0.405145 -0.0802473
                    }
                  }
                }
              }
            }
          }
          JOINT Bip001_Head
          {
            OFFSET 1.11782e-005 11.4912 2.09908
            CHANNELS 3 Zrotation Xrotation Yrotation
            End Site
            {
              OFFSET 2.95144e-005 21.2823 -2.83069e-005
            }
          }
        }
      }
    }
  }
}
MOTION
Frames:	5
Frame Time:	0.0333333
3.88184 93.291 -2.51002 -3.0287 -13.7363 -13.0155 -0.853165 5.45863 -1.27081 -5.80177 11.356 6.24598 0.236122 6.81275 6.90717 -7.36542 6.91856 -12.2561 2.95526e-006 -1.14681e-006 -1.49508e-006 -1.04874 -8.30051 0.415044 0.266118 28.987 7.37881 -0.892783 -7.2727 7.40598 -3.72721e-017 0 1.98784e-016 -0.68336 10.8391 3.31252 -0.681884 10.8267 3.32221 0.878338 8.98876 -9.91916 1.72486 -9.10414 17.2543 -15.2537 51.5541 -87.4737 -3.18867 1.09566 -34.1999 -24.6634 -6.37979 -18.0687 -7.95139e-016 3.97569e-016 4.29872e-015 -7.95139e-016 3.97569e-016 3.95085e-015 0.792443 -10.0371 -6.43192 6.20982 56.1558 77.465 5.52834 4.9109 79.7361 -0.698994 -0.445257 24.5779 -9.54166e-015 4.77083e-015 -7.95139e-016 -6.36111e-015 1.59028e-015 -0 0.166938 12.3736 -10.2545 
3.87847 93.2898 -2.50867 -3.0287 -13.7363 -13.0155 -0.853165 5.45863 -1.27081 -5.80177 11.356 6.24598 0.236122 6.81275 6.90717 -7.36542 6.91856 -12.2561 2.95526e-006 -1.14681e-006 -1.49508e-006 -1.04874 -8.30051 0.415044 0.266118 28.987 7.37881 -0.892783 -7.2727 7.40598 -3.72721e-017 0 1.98784e-016 -0.68336 10.8391 3.31252 -0.681884 10.8267 3.32221 0.878338 8.98876 -9.91916 1.72051 -9.09031 17.2536 -15.3684 51.5706 -87.3831 -3.18832 1.09542 -34.2181 -24.7403 -6.26261 -17.9698 -0 0 2.13693e-015 1.59028e-015 0 6.13748e-015 0.794118 -10.0375 -6.40904 6.25642 56.1488 77.4089 5.52834 4.9109 79.7361 -0.720431 -0.39839 24.5777 0 1.59028e-015 -0 3.18055e-015 1.59028e-015 -7.95139e-016 0.166938 12.3736 -10.2545 
3.87514 93.2886 -2.50735 -3.0287 -13.7363 -13.0155 -0.853165 5.45863 -1.27081 -5.80163 11.356 6.2453 0.236122 6.81275 6.90717 -7.36542 6.91856 -12.2561 2.95526e-006 -1.14681e-006 -1.49508e-006 -1.04874 -8.30051 0.415044 0.266118 28.987 7.37881 -0.892783 -7.2727 7.40598 -3.72721e-017 0 1.98784e-016 -0.68336 10.8391 3.31252 -0.681884 10.8267 3.32221 0.87761 8.98465 -9.91904 1.71914 -9.08594 17.2534 -15.4708 51.5879 -87.3021 -3.18798 1.09519 -34.2359 -24.8095 -6.14854 -17.8727 -7.95139e-016 0 -2.78299e-015 -1.59028e-015 0 -1.93815e-015 0.791322 -10.034 -6.38664 6.31483 56.1507 77.3414 5.52777 4.91557 79.7426 -0.744967 -0.353675 24.5776 -1.10348e-031 7.95139e-015 7.95139e-016 -1.32417e-031 4.77083e-015 1.59028e-015 0.166938 12.3736 -10.2545 
3.87194 93.2876 -2.50622 -3.0287 -13.7363 -13.0155 -0.853165 5.45863 -1.27081 -5.8012 11.3561 6.2431 0.236122 6.81275 6.90717 -7.36542 6.91856 -12.2561 2.95526e-006 -1.14681e-006 -1.49508e-006 -1.04874 -8.30051 0.415044 0.266118 28.987 7.37881 -0.892783 -7.2727 7.40598 -3.72721e-017 0 1.98784e-016 -0.68336 10.8391 3.31252 -0.681884 10.8267 3.32221 0.874013 8.96433 -9.91848 1.71613 -9.0642 17.2523 -15.5716 51.6 -87.2207 -3.18768 1.09498 -34.2516 -24.8252 -6.05522 -17.7848 7.95139e-016 0 1.59028e-015 -6.89673e-033 -3.97569e-016 -9.93923e-016 0.785541 -10.0146 -6.36634 6.37613 56.1566 77.2724 5.52615 4.91747 79.7614 -0.787337 -0.322326 24.5867 -3.18055e-015 -1.59028e-015 -0 -0 -1.59028e-015 -0 0.166938 12.3736 -10.2545 
3.86884 93.2868 -2.50525 -3.0287 -13.7363 -13.0155 -0.853165 5.45863 -1.27081 -5.80066 11.3561 6.24036 0.236122 6.81275 6.90717 -7.36542 6.91856 -12.2561 2.95526e-006 -1.14681e-006 -1.49508e-006 -1.04874 -8.30051 0.415044 0.266118 28.987 7.37881 -0.892618 -7.27268 7.40728 -6.21201e-017 1.59028e-015 -0 -0.68424 10.8391 3.31719 -0.68395 10.8267 3.32401 0.869942 8.94133 -9.91785 1.72574 -9.03896 17.2487 -15.6638 51.6077 -87.1459 -3.18741 1.0948 -34.2659 -24.7895 -5.98104 -17.7032 -1.59028e-015 0 -6.60959e-015 -7.95139e-016 -1.19271e-015 -6.85807e-015 0.785657 -9.99209 -6.34677 6.43738 56.1602 77.2024 5.52447 4.91944 79.7809 -0.83929 -0.302173 24.6076 6.36111e-015 -3.18055e-015 -2.38542e-015 9.54166e-015 -3.18056e-015 -7.95139e-016 0.172697 12.3736 -10.2545 
